<?xml version="1.0" standalone="no"?>
<!DOCTYPE svg PUBLIC "-//W3C//DTD SVG 20010904//EN"
 "http://www.w3.org/TR/2001/REC-SVG-20010904/DTD/svg10.dtd">
<svg version="1.0" xmlns="http://www.w3.org/2000/svg"
 width="800.000000pt" height="301.000000pt" viewBox="0 0 800.000000 301.000000"
 preserveAspectRatio="xMidYMid meet">

<g transform="translate(0.000000,301.000000) scale(0.100000,-0.100000)"
fill="#000000" stroke="none">
<path d="M0 1505 l0 -1505 4000 0 4000 0 0 1505 0 1505 -4000 0 -4000 0 0
-1505z m893 761 c21 -8 47 -22 58 -32 19 -17 20 -32 17 -618 -3 -599 -3 -601
-26 -666 -40 -111 -123 -203 -192 -212 -22 -3 -25 0 -23 27 0 17 9 57 19 90
16 54 18 120 21 685 l3 625 -49 -52 c-97 -104 -147 -251 -139 -416 3 -81 8
-100 37 -154 18 -34 30 -66 26 -72 -17 -28 -101 5 -158 63 -113 112 -104 309
23 504 48 75 163 182 230 215 60 30 96 33 153 13z m2012 -21 l40 -20 -3 -121
-4 -122 131 -7 c153 -8 163 -14 140 -78 l-14 -42 -130 -8 c-71 -5 -131 -9
-132 -10 0 -1 -4 -144 -8 -317 -8 -345 -2 -414 40 -456 45 -45 112 3 166 119
28 62 34 87 41 186 12 179 52 294 135 383 91 96 220 101 309 12 l44 -43 0 29
c0 43 29 56 96 41 89 -20 85 -4 87 -367 2 -297 3 -322 22 -359 33 -65 89 -61
135 12 29 45 29 46 29 207 0 224 32 340 123 450 38 46 123 96 164 96 51 0 116
-28 157 -67 36 -37 37 -37 37 -12 0 48 35 60 113 38 78 -21 75 -9 70 -350 l-4
-304 20 25 c55 68 157 275 182 371 11 43 11 48 -14 85 -31 44 -34 86 -11 143
26 66 103 98 162 67 35 -18 42 -33 42 -87 0 -46 8 -48 105 -24 91 22 154 19
182 -7 29 -27 30 -65 1 -188 -29 -129 -32 -350 -5 -428 12 -32 29 -59 44 -69
24 -16 28 -16 61 3 23 12 44 35 59 64 19 38 21 52 13 90 -5 25 -9 86 -10 137
-1 216 73 403 185 468 89 52 185 43 257 -25 23 -22 43 -40 45 -40 1 0 3 11 3
24 0 13 7 29 15 36 21 17 102 6 135 -19 l25 -18 0 -299 c0 -321 6 -373 50
-414 44 -42 103 0 151 108 24 54 24 60 24 352 0 235 3 300 13 309 9 7 31 8 70
1 101 -16 97 -7 98 -193 l0 -162 39 110 c77 214 102 255 153 255 40 0 106 -30
132 -59 17 -20 20 -44 28 -219 4 -108 10 -204 13 -212 4 -8 14 23 24 70 22
104 84 299 116 362 31 61 66 70 149 36 98 -39 97 -36 96 -321 -2 -266 8 -357
43 -410 54 -80 112 -24 150 144 7 32 34 45 54 26 30 -30 -14 -211 -67 -271
-25 -29 -87 -56 -127 -56 -89 0 -159 65 -195 181 -25 79 -43 295 -35 417 3 50
3 92 1 92 -9 0 -54 -109 -74 -178 -32 -110 -51 -206 -62 -314 -11 -115 -19
-128 -81 -128 -54 0 -104 46 -123 114 -17 60 -31 189 -41 369 -4 70 -11 127
-16 127 -11 0 -63 -114 -83 -184 -28 -95 -46 -210 -54 -340 -10 -148 -14 -156
-91 -156 -59 0 -107 16 -120 40 -6 10 -10 35 -10 56 l0 37 -29 -40 c-40 -55
-85 -85 -136 -90 -87 -10 -161 39 -193 129 l-16 47 -34 -50 c-35 -53 -103
-103 -162 -119 -106 -30 -199 9 -260 108 -10 16 -12 16 -23 -2 -70 -108 -159
-141 -254 -95 -155 75 -198 291 -127 637 l7 33 -73 -3 -73 -3 -18 -51 c-44
-132 -172 -351 -282 -486 l-47 -58 0 -187 c0 -204 -12 -287 -53 -377 -35 -75
-78 -119 -148 -151 -55 -24 -71 -27 -135 -23 -135 9 -215 85 -217 206 -2 102
31 152 226 344 165 162 169 168 163 201 l-6 33 -53 -51 c-59 -57 -123 -85
-194 -85 -64 0 -103 20 -159 82 l-49 55 -35 -48 c-62 -86 -139 -109 -227 -70
-43 20 -83 69 -104 129 l-11 33 -28 -44 c-47 -75 -129 -125 -216 -134 -107
-11 -188 47 -237 169 l-24 60 -28 -53 c-60 -117 -129 -173 -211 -171 -93 1
-166 76 -200 207 -8 28 -14 62 -14 78 0 15 -3 27 -7 27 -5 0 -26 -32 -47 -70
-53 -94 -135 -175 -216 -214 -61 -29 -72 -31 -170 -30 -198 3 -285 68 -215
160 44 58 56 59 127 13 54 -35 69 -40 102 -36 71 10 105 95 72 181 -18 47
-168 202 -185 192 -5 -4 -58 -85 -117 -182 -117 -193 -182 -271 -250 -304 -63
-31 -109 -29 -145 6 -51 49 -60 103 -60 344 0 118 4 250 7 293 8 92 0 97 -54
28 -89 -113 -182 -345 -225 -566 l-23 -120 -58 -3 c-74 -4 -100 12 -115 72
-12 48 -13 483 -2 701 l6 120 43 -2 c24 -1 60 -10 80 -20 l37 -18 5 -200 5
-200 24 65 c39 104 119 255 162 303 23 27 57 52 83 62 42 16 48 16 98 0 32
-11 68 -33 90 -55 l38 -38 -6 -288 c-6 -275 -6 -290 12 -312 l19 -23 28 21
c35 28 106 133 186 276 l62 111 -26 48 c-32 61 -32 108 1 174 55 109 201 154
258 78 18 -25 19 -31 7 -75 -11 -43 -38 -95 -76 -147 -14 -20 -11 -24 58 -73
95 -68 182 -153 207 -202 12 -24 20 -60 20 -92 l1 -53 39 44 c22 24 54 72 71
107 l31 62 5 246 6 246 -107 0 c-102 0 -107 1 -117 23 -12 27 3 101 24 114 6
4 55 7 107 8 l95 0 6 126 c3 70 10 132 14 139 11 18 111 8 160 -15z"/>
<path d="M3462 1655 c-69 -58 -96 -154 -96 -345 -1 -157 11 -209 59 -257 77
-77 164 -8 211 167 21 82 25 275 5 342 -30 105 -113 148 -179 93z"/>
<path d="M4341 1663 c-69 -34 -117 -155 -128 -318 -17 -261 90 -412 203 -289
64 71 101 229 92 402 -6 108 -26 171 -66 202 -30 24 -56 25 -101 3z"/>
<path d="M5823 1650 c-66 -40 -105 -169 -106 -350 -1 -136 19 -218 63 -261
105 -106 229 89 230 360 0 124 -21 201 -67 241 -40 35 -75 38 -120 10z"/>
<path d="M4469 760 c-127 -127 -199 -246 -199 -327 1 -72 34 -103 109 -103 56
0 105 44 127 113 16 50 32 306 22 352 -3 17 -12 12 -59 -35z"/>
</g>
</svg>
