<?xml version="1.0" standalone="no"?>
<!DOCTYPE svg PUBLIC "-//W3C//DTD SVG 20010904//EN"
 "http://www.w3.org/TR/2001/REC-SVG-20010904/DTD/svg10.dtd">
<svg version="1.0" xmlns="http://www.w3.org/2000/svg"
 width="720.000000pt" height="759.000000pt" viewBox="0 0 720.000000 759.000000"
 preserveAspectRatio="xMidYMid meet">

<g transform="translate(0.000000,759.000000) scale(0.100000,-0.100000)"
fill="#000000" stroke="none">
<path d="M1770 7239 c-416 -42 -817 -233 -1110 -528 -207 -208 -346 -433 -443
-714 l-42 -122 -3 -2060 -2 -2060 25 -90 c39 -135 99 -277 166 -396 300 -525
826 -863 1434 -919 152 -14 3411 -14 3560 0 852 81 1523 714 1650 1558 23 149
22 3642 0 3782 -95 592 -444 1078 -967 1350 -211 110 -432 175 -677 200 -126
12 -3463 12 -3591 -1z m3715 -426 c502 -116 888 -456 1054 -926 17 -49 41
-134 53 -190 l23 -102 0 -1795 c0 -2006 6 -1842 -70 -2076 -167 -513 -632
-895 -1175 -964 -59 -8 -623 -10 -1850 -8 -1751 4 -1766 4 -1855 25 -296 69
-509 185 -716 392 -171 172 -274 338 -348 560 -71 215 -66 67 -66 2066 0 2000
-5 1844 66 2065 71 219 176 388 348 561 180 180 375 297 608 364 193 55 121
53 2053 51 1773 -2 1786 -2 1875 -23z"/>
<path d="M5305 6017 c-117 -30 -223 -117 -273 -225 -24 -51 -27 -68 -27 -172
0 -105 2 -120 28 -171 38 -78 117 -155 196 -192 53 -25 82 -32 152 -35 102 -5
165 12 247 65 259 171 228 571 -56 702 -81 37 -188 48 -267 28z"/>
<path d="M3430 5414 c-413 -49 -750 -210 -1015 -485 -230 -239 -353 -468 -431
-805 -25 -108 -28 -138 -28 -319 -1 -170 2 -217 22 -312 24 -120 87 -314 129
-397 166 -331 419 -590 730 -748 537 -272 1185 -225 1673 120 134 94 319 282
403 409 130 194 214 397 258 624 32 164 33 426 0 588 -101 514 -418 932 -876
1160 -132 66 -302 122 -440 147 -87 15 -353 27 -425 18z m438 -438 c723 -183
1108 -946 831 -1646 -112 -283 -362 -535 -656 -659 -175 -75 -435 -109 -631
-82 -457 61 -846 382 -992 819 -60 178 -77 411 -45 598 79 454 418 831 862
959 131 37 191 44 368 40 132 -2 178 -7 263 -29z"/>
</g>
</svg>
