<?xml version="1.0" standalone="no"?>
<!DOCTYPE svg PUBLIC "-//W3C//DTD SVG 20010904//EN"
 "http://www.w3.org/TR/2001/REC-SVG-20010904/DTD/svg10.dtd">
<svg version="1.0" xmlns="http://www.w3.org/2000/svg"
 width="510.000000pt" height="512.000000pt" viewBox="0 0 510.000000 512.000000"
 preserveAspectRatio="xMidYMid meet">

<g transform="translate(0.000000,512.000000) scale(0.100000,-0.100000)"
fill="#000000" stroke="none">
<path d="M1290 5109 c-579 -75 -1064 -489 -1225 -1044 -57 -198 -56 -167 -52
-1550 3 -1176 4 -1276 21 -1345 70 -296 201 -535 405 -739 205 -205 451 -338
744 -403 l102 -23 1265 0 1265 0 102 23 c203 45 400 131 566 249 124 88 272
241 360 374 84 127 132 223 176 356 70 208 65 104 69 1503 2 896 0 1288 -8
1345 -34 245 -137 492 -286 687 -70 91 -217 234 -311 301 -162 115 -359 203
-561 249 l-97 22 -1235 2 c-679 1 -1264 -2 -1300 -7z m1809 -780 c141 -234
266 -445 279 -468 l23 -41 -610 0 -609 0 -281 464 c-155 255 -281 466 -281
470 0 3 275 5 612 4 l612 -3 255 -426z m792 399 c191 -51 350 -138 491 -268
160 -147 299 -396 333 -597 l7 -43 -450 0 -449 0 -119 198 c-65 108 -191 320
-281 471 l-163 273 267 -4 c247 -5 275 -7 364 -30z m-2401 -458 c144 -239 264
-438 267 -442 2 -5 -307 -8 -687 -8 l-692 0 7 43 c4 23 20 82 36 131 80 241
235 445 444 581 104 68 146 89 252 125 68 23 90 26 99 17 6 -7 129 -208 274
-447z m3240 -1869 c0 -1152 1 -1133 -57 -1294 -84 -238 -237 -431 -448 -569
-103 -67 -199 -109 -334 -147 l-96 -26 -1245 0 -1245 0 -97 27 c-376 104 -654
358 -781 715 -58 161 -57 142 -57 1294 l0 1059 2180 0 2180 0 0 -1059z"/>
<path d="M1963 2839 c-24 -12 -52 -37 -65 -57 l-23 -37 -3 -730 c-2 -653 -1
-734 14 -773 34 -90 144 -129 230 -80 23 13 292 171 598 352 394 233 563 338
579 360 31 43 31 142 1 183 -20 28 -1111 746 -1189 784 -52 24 -90 24 -142 -2z"/>
</g>
</svg>
