<?xml version="1.0" standalone="no"?>
<!DOCTYPE svg PUBLIC "-//W3C//DTD SVG 20010904//EN"
 "http://www.w3.org/TR/2001/REC-SVG-20010904/DTD/svg10.dtd">
<svg version="1.0" xmlns="http://www.w3.org/2000/svg"
 width="360.000000pt" height="360.000000pt" viewBox="0 0 360.000000 360.000000"
 preserveAspectRatio="xMidYMid meet">

<g transform="translate(0.000000,360.000000) scale(0.100000,-0.100000)"
fill="#000000" stroke="none">
<path d="M1342 3093 c-18 -3 -32 -8 -30 -12 2 -5 73 -121 158 -260 l155 -251
170 0 c94 0 247 3 341 7 l170 6 -154 259 -155 258 -311 -2 c-171 0 -326 -3
-344 -5z"/>
<path d="M2267 3050 c15 -28 84 -144 153 -258 l125 -207 262 -3 263 -2 -6 32
c-21 119 -73 219 -156 300 -137 134 -300 188 -564 188 l-105 0 28 -50z"/>
<path d="M1013 3051 c-145 -53 -293 -171 -347 -280 -25 -49 -62 -188 -53 -197
2 -3 176 -3 386 -2 l382 3 -153 247 c-84 137 -155 248 -158 248 -3 -1 -28 -9
-57 -19z"/>
<path d="M794 2363 l-191 -3 4 -488 c5 -664 18 -806 88 -948 62 -126 216 -246
385 -299 75 -24 369 -29 1010 -17 465 9 499 11 562 31 136 44 297 179 359 303
61 121 62 132 66 811 l4 617 -1048 -2 c-576 -2 -1134 -4 -1239 -5z m1120 -560
c177 -113 331 -215 344 -226 15 -14 22 -32 22 -57 0 -25 -7 -43 -22 -57 -22
-21 -574 -355 -650 -394 -49 -25 -84 -24 -112 4 l-23 23 -7 420 c-8 453 -7
461 43 490 15 8 39 12 55 9 16 -3 174 -98 350 -212z"/>
</g>
</svg>
