<?xml version="1.0" standalone="no"?>
<!DOCTYPE svg PUBLIC "-//W3C//DTD SVG 20010904//EN"
 "http://www.w3.org/TR/2001/REC-SVG-20010904/DTD/svg10.dtd">
<svg version="1.0" xmlns="http://www.w3.org/2000/svg"
 width="350.000000pt" height="268.000000pt" viewBox="0 0 350.000000 268.000000"
 preserveAspectRatio="xMidYMid meet">

<g transform="translate(0.000000,268.000000) scale(0.100000,-0.100000)"
fill="#000000" stroke="none">
<path d="M1420 2629 c-118 -4 -253 -12 -300 -18 -47 -5 -137 -10 -200 -11 -63
0 -176 -7 -250 -15 -74 -8 -178 -15 -231 -15 -68 0 -101 -4 -115 -15 -10 -8
-29 -15 -41 -15 -13 0 -23 -4 -23 -9 0 -5 -14 -14 -30 -20 -17 -5 -30 -15 -30
-20 0 -6 -7 -11 -15 -11 -8 0 -15 -7 -15 -15 0 -8 -7 -15 -15 -15 -8 0 -15 -5
-15 -11 0 -7 -6 -17 -14 -23 -8 -6 -28 -38 -45 -70 l-31 -59 0 -234 c0 -145 4
-242 11 -254 5 -11 14 -133 20 -272 5 -139 13 -290 18 -337 6 -47 10 -146 10
-221 1 -103 5 -140 16 -155 8 -10 15 -33 15 -50 0 -17 7 -37 15 -44 8 -7 15
-18 15 -24 0 -6 8 -19 18 -28 9 -9 32 -32 51 -52 19 -20 40 -36 47 -36 8 0 14
-4 14 -9 0 -5 14 -14 30 -20 17 -5 30 -14 30 -19 0 -11 102 -24 180 -23 100 2
443 20 606 32 89 7 168 9 177 6 13 -5 17 -19 17 -61 0 -30 4 -58 10 -61 5 -3
10 -18 10 -33 0 -15 16 -51 35 -79 19 -29 35 -55 35 -58 0 -11 70 -75 81 -75
6 0 17 -7 25 -15 9 -8 26 -15 39 -15 12 0 25 -7 29 -15 4 -11 21 -15 63 -15
32 -1 94 -7 138 -15 53 -10 151 -15 288 -15 134 0 216 -4 229 -11 12 -7 119
-15 257 -20 130 -4 277 -13 326 -19 65 -7 105 -7 140 1 28 6 67 13 88 16 22 3
37 11 37 19 0 8 10 14 25 14 14 0 28 7 31 15 4 8 12 15 20 15 8 0 14 7 14 15
0 8 7 15 15 15 8 0 15 7 15 15 0 8 7 15 15 15 8 0 15 6 15 14 0 8 7 16 15 20
8 3 15 10 15 16 0 6 7 18 15 26 8 9 15 28 15 43 0 16 7 48 15 71 10 29 15 84
16 174 0 72 5 172 10 221 5 50 13 194 18 320 6 127 15 264 20 305 6 41 11 154
11 251 0 145 -3 179 -15 189 -8 7 -15 21 -15 31 0 46 -122 189 -161 189 -9 0
-19 6 -22 14 -3 7 -27 16 -53 20 -26 3 -52 10 -58 15 -6 4 -90 11 -186 15 -96
3 -206 11 -245 16 -38 5 -131 9 -204 10 -151 0 -354 16 -388 30 -21 9 -23 16
-23 88 0 53 -5 84 -15 98 -8 10 -15 29 -15 41 0 12 -7 28 -15 37 -8 8 -15 22
-15 30 0 9 -5 16 -10 16 -6 0 -16 11 -22 25 -6 14 -22 28 -35 31 -13 4 -23 12
-23 20 0 8 -7 14 -15 14 -9 0 -18 7 -21 15 -4 8 -17 15 -30 15 -12 0 -27 6
-31 14 -11 19 -169 24 -433 15z m354 -74 c11 -8 30 -15 42 -15 41 0 134 -63
134 -90 0 -7 11 -21 24 -31 17 -14 27 -34 32 -67 3 -26 11 -52 15 -58 5 -6 10
-36 12 -65 l2 -54 -155 -3 c-111 -2 -164 -7 -187 -17 -17 -8 -38 -15 -47 -15
-9 0 -16 -4 -16 -9 0 -5 -9 -12 -19 -16 -35 -11 -128 -112 -154 -167 -21 -44
-27 -78 -36 -198 -24 -317 -21 -298 -57 -339 -19 -20 -34 -39 -34 -43 0 -4
-34 -41 -75 -83 -41 -41 -75 -80 -75 -85 0 -6 -7 -10 -15 -10 -8 0 -15 -4 -15
-10 0 -11 -54 -84 -88 -118 -44 -44 -85 -34 -160 38 -34 33 -64 60 -68 60 -3
0 -37 31 -75 70 -89 89 -182 135 -204 100 -3 -5 -14 -10 -23 -10 -10 0 -38
-23 -62 -52 -25 -28 -62 -69 -82 -90 -20 -21 -54 -61 -74 -88 -21 -28 -42 -50
-46 -50 -4 0 -8 -7 -8 -15 0 -8 -5 -15 -11 -15 -7 0 -18 -8 -25 -17 -9 -13
-16 -15 -23 -7 -14 13 -30 179 -31 314 0 58 -5 146 -11 195 -6 50 -15 205 -20
345 -5 140 -10 269 -11 285 -3 58 15 175 28 186 8 6 14 20 14 30 0 11 4 19 8
19 5 0 14 11 20 25 6 13 23 27 37 31 14 3 25 12 25 20 0 8 7 14 16 14 8 0 22
7 30 15 9 8 28 15 44 15 16 0 41 5 57 11 15 6 143 15 283 20 140 5 264 14 275
19 11 5 126 12 255 14 129 2 262 8 295 13 98 16 237 15 259 -2z m331 -465
c110 -5 256 -15 325 -22 69 -6 213 -13 319 -15 107 -2 200 -8 205 -12 6 -5 61
-12 123 -16 77 -5 116 -12 124 -21 6 -8 20 -14 31 -14 10 0 21 -7 24 -15 4 -8
10 -15 15 -15 12 0 49 -37 49 -49 0 -5 7 -11 15 -15 8 -3 15 -12 15 -19 0 -8
6 -20 14 -26 7 -6 17 -39 20 -74 4 -34 11 -64 15 -67 5 -3 2 -52 -5 -110 -7
-58 -13 -159 -14 -225 0 -66 -6 -167 -11 -225 -6 -58 -14 -188 -19 -290 -12
-291 -30 -482 -46 -512 -8 -14 -14 -36 -14 -47 0 -12 -7 -24 -15 -27 -8 -4
-15 -10 -15 -16 0 -20 -53 -78 -71 -78 -11 0 -19 -4 -19 -10 0 -5 -12 -13 -27
-16 -15 -4 -38 -13 -52 -20 -31 -16 -232 -18 -356 -3 -44 5 -190 13 -325 18
-135 6 -263 14 -285 20 -22 6 -122 11 -223 11 -134 0 -190 4 -210 14 -15 7
-43 16 -63 20 -20 3 -48 16 -61 29 -14 12 -34 27 -44 33 -10 6 -35 35 -55 65
-34 49 -38 61 -44 144 -3 49 -1 173 5 275 5 102 14 282 19 400 6 118 14 256
20 305 6 50 13 153 16 230 5 95 11 147 21 162 8 12 14 32 14 43 0 26 44 96 70
112 11 7 20 18 20 25 0 7 11 13 25 13 14 0 28 6 31 14 3 8 24 18 47 21 23 4
49 11 57 16 8 5 42 7 75 4 33 -3 150 -9 260 -15z m-719 -877 c-20 -218 -26
-308 -26 -415 0 -127 -16 -178 -55 -178 -136 -3 -532 -22 -643 -31 -131 -12
-149 -11 -217 6 -42 10 -80 24 -86 32 -6 7 -17 13 -23 13 -19 0 -91 81 -114
128 -37 73 -34 81 81 203 9 11 17 24 17 29 0 6 7 10 15 10 8 0 15 7 15 15 0 8
7 15 15 15 8 0 15 4 15 8 0 9 15 28 71 89 16 18 29 37 29 43 0 5 7 10 15 10 8
0 15 5 15 10 0 18 40 50 68 56 30 6 50 -8 165 -118 39 -38 74 -68 78 -68 5 0
28 -19 52 -42 24 -24 58 -51 76 -60 36 -20 101 -24 101 -8 0 6 7 13 16 17 16
6 84 69 84 78 0 2 27 31 60 64 33 33 60 65 60 70 0 16 90 101 107 101 14 0 15
-11 9 -77z"/>
<path d="M423 2231 c-55 -58 -60 -65 -68 -100 -26 -120 66 -235 188 -232 61 1
147 48 147 81 0 5 7 13 16 18 20 11 24 160 5 172 -7 4 -18 18 -24 30 -7 13
-21 28 -32 34 -10 6 -25 17 -33 24 -8 7 -42 12 -88 12 -73 0 -74 0 -111 -39z
m157 -41 c0 -5 11 -12 24 -16 17 -4 27 -15 31 -35 4 -16 11 -29 16 -29 15 0
10 -22 -13 -67 -17 -32 -33 -46 -65 -58 -25 -10 -52 -14 -65 -10 -29 9 -68 44
-68 62 0 7 -4 13 -10 13 -5 0 -10 18 -10 40 0 32 7 45 37 75 30 29 43 35 80
35 23 0 43 -4 43 -10z"/>
<path d="M2070 1662 c-39 -27 -80 -72 -91 -99 -5 -13 -9 -71 -9 -129 0 -63 -4
-104 -10 -104 -6 0 -10 -55 -11 -142 0 -79 -5 -195 -10 -258 -5 -63 -10 -131
-11 -150 -1 -42 20 -130 32 -130 4 0 18 -11 31 -25 13 -13 30 -25 37 -25 6 0
12 -4 12 -10 0 -13 87 -13 95 0 3 5 16 10 28 10 18 0 169 71 252 118 11 6 45
23 75 37 68 33 150 74 170 86 8 5 22 12 30 15 8 3 22 9 30 14 8 5 47 25 86 45
81 42 104 68 124 138 11 40 11 55 -1 90 -14 42 -68 102 -101 113 -10 3 -18 10
-18 15 0 5 -6 9 -14 9 -7 0 -29 13 -47 30 -19 16 -39 30 -46 30 -6 0 -18 6
-25 13 -12 11 -46 35 -93 64 -11 7 -28 16 -37 19 -10 3 -18 10 -18 15 0 8 -40
33 -72 45 -10 3 -18 10 -18 14 0 5 -21 19 -46 32 -26 12 -49 28 -51 35 -3 7
-11 13 -18 13 -7 0 -18 7 -25 15 -7 8 -21 15 -31 15 -11 0 -19 6 -19 14 0 8
-13 17 -30 21 -16 4 -32 11 -35 16 -10 15 -88 9 -115 -9z m157 -102 c24 -16
48 -30 54 -30 5 0 9 -4 9 -9 0 -5 9 -13 20 -16 11 -4 35 -20 52 -36 18 -16 40
-29 50 -29 10 0 18 -5 18 -10 0 -6 8 -14 18 -17 22 -8 76 -46 80 -55 2 -5 10
-8 18 -8 8 0 14 -5 14 -10 0 -6 12 -16 28 -23 26 -12 39 -20 65 -43 7 -6 23
-15 35 -18 12 -4 22 -12 22 -17 0 -5 6 -9 13 -9 8 0 22 -9 32 -20 10 -11 21
-20 26 -20 4 0 23 -14 43 -32 29 -26 36 -39 36 -70 0 -40 -27 -78 -54 -78 -8
0 -17 -4 -20 -9 -3 -5 -99 -55 -213 -112 -115 -57 -214 -109 -221 -116 -7 -7
-18 -13 -25 -13 -15 0 -96 -40 -103 -51 -3 -5 -12 -9 -21 -9 -9 0 -25 -8 -35
-17 -27 -25 -114 -22 -140 5 -19 19 -20 32 -19 183 1 90 6 182 11 204 5 22 13
131 16 242 l7 202 29 36 c39 47 90 49 155 5z"/>
</g>
</svg>
