<?xml version="1.0" standalone="no"?>
<!DOCTYPE svg PUBLIC "-//W3C//DTD SVG 20010904//EN"
 "http://www.w3.org/TR/2001/REC-SVG-20010904/DTD/svg10.dtd">
<svg version="1.0" xmlns="http://www.w3.org/2000/svg"
 width="256.000000pt" height="256.000000pt" viewBox="0 0 256.000000 256.000000"
 preserveAspectRatio="xMidYMid meet">

<g transform="translate(0.000000,256.000000) scale(0.100000,-0.100000)"
fill="#000000" stroke="none">
<path d="M1160 2474 c-282 -43 -488 -142 -670 -324 -184 -185 -294 -418 -322
-682 -27 -251 45 -531 187 -735 l45 -64 0 -151 c0 -131 3 -157 20 -193 23 -47
58 -76 113 -94 53 -18 94 -8 209 50 l99 50 57 -21 c154 -58 347 -81 509 -61
381 47 705 275 876 616 79 159 111 302 111 495 0 205 -33 342 -127 522 -165
319 -475 536 -842 588 -67 9 -213 11 -265 4z m375 -189 c178 -52 313 -133 437
-263 122 -128 191 -253 240 -428 29 -107 32 -355 4 -454 -53 -191 -140 -342
-268 -466 -175 -170 -377 -257 -623 -271 -128 -6 -254 12 -362 53 -142 53
-118 54 -259 -14 -69 -34 -130 -60 -135 -56 -5 3 -9 78 -9 166 l0 161 -66 98
c-110 165 -161 314 -171 504 -24 471 297 883 767 986 125 28 322 21 445 -16z"/>
<path d="M1620 1565 c-89 -63 -170 -115 -178 -115 -8 0 -76 46 -150 101 -129
97 -173 118 -191 92 -3 -5 -91 -130 -194 -276 -202 -287 -213 -311 -155 -331
25 -9 40 0 187 112 88 67 168 122 179 122 10 0 98 -47 195 -105 97 -58 182
-105 190 -105 8 0 21 8 29 18 22 24 318 538 318 551 0 15 -37 51 -53 51 -7 0
-87 -52 -177 -115z"/>
</g>
</svg>
