<?xml version="1.0" standalone="no"?>
<!DOCTYPE svg PUBLIC "-//W3C//DTD SVG 20010904//EN"
 "http://www.w3.org/TR/2001/REC-SVG-20010904/DTD/svg10.dtd">
<svg version="1.0" xmlns="http://www.w3.org/2000/svg"
 width="512.000000pt" height="512.000000pt" viewBox="0 0 512.000000 512.000000"
 preserveAspectRatio="xMidYMid meet">

<g transform="translate(0.000000,512.000000) scale(0.100000,-0.100000)"
fill="#000000" stroke="none">
<path d="M2350 5110 c-348 -32 -684 -130 -980 -286 -479 -254 -870 -656 -1105
-1139 -156 -319 -232 -603 -257 -963 -43 -600 140 -1209 515 -1711 93 -124
365 -396 490 -490 356 -265 748 -428 1197 -498 143 -22 526 -24 670 -4 624 86
1150 361 1572 821 347 377 567 847 645 1375 26 180 24 533 -5 720 -42 267
-113 495 -231 740 -121 250 -268 460 -466 664 -407 419 -909 673 -1495 756
-131 18 -424 27 -550 15z m443 -1101 c870 -129 1441 -939 1231 -1747 -134
-518 -565 -921 -1119 -1047 -143 -33 -403 -45 -548 -26 -107 14 -263 53 -348
86 l-64 25 -287 -131 c-159 -73 -291 -129 -295 -126 -5 5 29 374 53 582 5 37
0 46 -56 115 -213 262 -326 606 -306 934 21 351 159 651 415 906 262 261 572
402 976 444 60 6 266 -2 348 -15z"/>
<path d="M2440 3819 c-481 -37 -915 -342 -1095 -768 -146 -346 -115 -744 81
-1058 53 -84 74 -111 164 -214 l40 -45 -19 -184 c-11 -101 -19 -185 -17 -187
1 -2 80 33 174 77 l172 79 99 -39 c195 -79 351 -105 576 -97 221 7 384 49 578
149 338 174 573 478 653 844 23 108 23 341 0 445 -55 251 -166 453 -348 631
-79 77 -217 177 -309 224 -141 71 -339 129 -478 139 -42 3 -96 7 -121 9 -25 2
-92 0 -150 -5z m158 -1059 c100 -88 186 -160 191 -160 6 0 156 72 332 161 177
88 322 159 324 157 3 -4 -723 -712 -735 -716 -5 -2 -90 69 -189 157 -99 89
-185 161 -190 161 -6 0 -156 -72 -332 -161 -177 -88 -322 -159 -324 -157 -3 5
727 718 736 718 4 0 88 -72 187 -160z"/>
</g>
</svg>
