<?xml version="1.0" encoding="utf-8"?>
<!-- Svg Vector Icons : http://www.onlinewebfonts.com/icon -->
<!DOCTYPE svg PUBLIC "-//W3C//DTD SVG 1.1//EN" "http://www.w3.org/Graphics/SVG/1.1/DTD/svg11.dtd">
<svg version="1.1" xmlns="http://www.w3.org/2000/svg" xmlns:xlink="http://www.w3.org/1999/xlink" x="0px" y="0px" viewBox="0 0 256 256" enable-background="new 0 0 256 256" xml:space="preserve">
<metadata> Svg Vector Icons : http://www.onlinewebfonts.com/icon </metadata>
<g><g><path fill="#000000" d="M128,246c-65.1,0-118-52.9-118-118C10,62.9,62.9,10,128,10c65.1,0,118,52.9,118,118C246,193.1,193.1,246,128,246z M128,15.8C66.1,15.8,15.8,66.1,15.8,128c0,61.9,50.4,112.2,112.2,112.2c61.9,0,112.2-50.4,112.2-112.2C240.2,66.1,189.9,15.8,128,15.8z"/><path fill="#000000" d="M169.4,177.4H86.6c-7.3,0-13.2-5.9-13.2-13.2v-62c0-7.3,5.9-13.2,13.2-13.2h14.4l10.4-10.3h33.5l10.4,10.3h14.4c7.3,0,13.2,5.9,13.2,13.2v62C182.7,171.5,176.7,177.4,169.4,177.4z M86.6,94.7c-4.1,0-7.5,3.3-7.5,7.5v62c0,4.1,3.3,7.5,7.5,7.5h82.9c4.1,0,7.5-3.3,7.5-7.5v-62c0-4.1-3.3-7.5-7.5-7.5h-16.7l-10.4-10.3h-28.7l-10.4,10.3H86.6z M128,161.9c-15.9,0-28.8-12.9-28.8-28.7s12.9-28.7,28.8-28.7c15.9,0,28.8,12.9,28.8,28.7S143.9,161.9,128,161.9z M128,110.2c-12.7,0-23,10.3-23,23c0,12.7,10.3,23,23,23c12.7,0,23-10.3,23-23C151,120.5,140.7,110.2,128,110.2z"/></g></g>
</svg>