<?xml version="1.0" encoding="utf-8"?>
<!-- Svg Vector Icons : http://www.onlinewebfonts.com/icon -->
<!DOCTYPE svg PUBLIC "-//W3C//DTD SVG 1.1//EN" "http://www.w3.org/Graphics/SVG/1.1/DTD/svg11.dtd">
<svg version="1.1" xmlns="http://www.w3.org/2000/svg" xmlns:xlink="http://www.w3.org/1999/xlink" x="0px" y="0px" viewBox="0 0 256 256" enable-background="new 0 0 256 256" xml:space="preserve">
<metadata> Svg Vector Icons : http://www.onlinewebfonts.com/icon </metadata>
<g><g><path fill="#000000" d="M128,246c-15.9,0-31.4-3.1-45.9-9.3c-14.1-5.9-26.7-14.4-37.5-25.3c-10.8-10.8-19.3-23.5-25.3-37.5c-6.2-14.6-9.3-30-9.3-45.9s3.1-31.4,9.3-45.9C25.2,68,33.7,55.4,44.6,44.6C55.4,33.7,68,25.2,82.1,19.3c14.6-6.2,30-9.3,45.9-9.3s31.4,3.1,45.9,9.3c14.1,5.9,26.7,14.4,37.5,25.3c10.8,10.8,19.3,23.5,25.3,37.5c6.2,14.6,9.3,30,9.3,45.9s-3.1,31.4-9.3,45.9c-5.9,14.1-14.4,26.7-25.3,37.5c-10.8,10.8-23.5,19.3-37.5,25.3C159.4,242.9,143.9,246,128,246z M128,20.3C68.6,20.3,20.3,68.6,20.3,128c0,59.4,48.3,107.7,107.7,107.7c59.4,0,107.7-48.3,107.7-107.7C235.7,68.6,187.4,20.3,128,20.3z M128.3,133.2h2.6c2.2,0,3.9,1.7,3.9,3.9v18.4c0,2.2-1.7,3.9-3.9,3.9h-2.6c-2.2,0-3.9-1.7-3.9-3.9v-18.4C124.4,134.9,126.1,133.2,128.3,133.2L128.3,133.2z M171.5,120v47.2c0,2.8-2.4,5.2-5.2,5.2H93c-2.8,0-5.2-2.4-5.2-5.2V120H171.5 M179.5,112.2H80.1v55.1c0,7.1,5.8,13,13.2,13h73.3c7.1,0,13.2-5.9,13.2-13v-55.1H179.5L179.5,112.2z M168.9,112.2h-7.8v-7.8c0-17.7-14.7-31.4-31.4-31.4c-17.1,0-31.4,14.3-31.4,31.4v7.8h-7.8v-7.8C90.7,83,108.6,65,130,65c21.2,0,39.4,17.1,39.4,39.4v7.8L168.9,112.2L168.9,112.2z"/></g></g>
</svg>